<mxfile host="Electron" modified="2024-06-09T13:12:00.927Z" agent="Mozilla/5.0 (Windows NT 10.0; Win64; x64) AppleWebKit/537.36 (KHTML, like Gecko) draw.io/24.5.1 Chrome/124.0.6367.207 Electron/30.0.6 Safari/537.36" etag="UGNVHb46ZXlEET23zJh-" version="24.5.1" type="device" pages="2">
  <diagram name="Page-1" id="PPX7QppvXicN2X3jxnFm">
    <mxGraphModel dx="1687" dy="1040" grid="0" gridSize="10" guides="1" tooltips="1" connect="1" arrows="1" fold="1" page="1" pageScale="1" pageWidth="1920" pageHeight="1200" math="0" shadow="0">
      <root>
        <mxCell id="0" />
        <mxCell id="1" parent="0" />
        <mxCell id="4uYOrzkODTTvTiDh_vcF-89" value="" style="rounded=1;whiteSpace=wrap;html=1;strokeColor=#67AB9F;strokeWidth=2;align=center;verticalAlign=middle;fontFamily=Helvetica;fontSize=12;fontColor=default;fillColor=none;arcSize=9;" parent="1" vertex="1">
          <mxGeometry x="1537" y="808" width="151" height="368" as="geometry" />
        </mxCell>
        <mxCell id="4uYOrzkODTTvTiDh_vcF-72" value="" style="rounded=1;whiteSpace=wrap;html=1;fillColor=none;strokeColor=#67AB9F;strokeWidth=2;" parent="1" vertex="1">
          <mxGeometry x="60" y="150" width="1000" height="60" as="geometry" />
        </mxCell>
        <mxCell id="4uYOrzkODTTvTiDh_vcF-7" value="" style="shape=table;startSize=0;container=1;collapsible=0;childLayout=tableLayout;fillColor=#ffe6cc;strokeColor=#d79b00;" parent="1" vertex="1">
          <mxGeometry x="280" y="160" width="160" height="40" as="geometry" />
        </mxCell>
        <mxCell id="4uYOrzkODTTvTiDh_vcF-8" value="" style="shape=tableRow;horizontal=0;startSize=0;swimlaneHead=0;swimlaneBody=0;strokeColor=inherit;top=0;left=0;bottom=0;right=0;collapsible=0;dropTarget=0;fillColor=none;points=[[0,0.5],[1,0.5]];portConstraint=eastwest;" parent="4uYOrzkODTTvTiDh_vcF-7" vertex="1">
          <mxGeometry width="160" height="40" as="geometry" />
        </mxCell>
        <mxCell id="4uYOrzkODTTvTiDh_vcF-9" value="&lt;font face=&quot;Noto Serif Bengali&quot;&gt;NULL&lt;/font&gt;" style="shape=partialRectangle;html=1;whiteSpace=wrap;connectable=0;strokeColor=inherit;overflow=hidden;fillColor=none;top=0;left=0;bottom=0;right=0;pointerEvents=1;" parent="4uYOrzkODTTvTiDh_vcF-8" vertex="1">
          <mxGeometry width="53" height="40" as="geometry">
            <mxRectangle width="53" height="40" as="alternateBounds" />
          </mxGeometry>
        </mxCell>
        <mxCell id="4uYOrzkODTTvTiDh_vcF-10" value="&lt;font face=&quot;Noto Serif Bengali&quot;&gt;DATA&lt;/font&gt;" style="shape=partialRectangle;html=1;whiteSpace=wrap;connectable=0;strokeColor=inherit;overflow=hidden;fillColor=none;top=0;left=0;bottom=0;right=0;pointerEvents=1;" parent="4uYOrzkODTTvTiDh_vcF-8" vertex="1">
          <mxGeometry x="53" width="54" height="40" as="geometry">
            <mxRectangle width="54" height="40" as="alternateBounds" />
          </mxGeometry>
        </mxCell>
        <mxCell id="4uYOrzkODTTvTiDh_vcF-11" value="&lt;font data-font-src=&quot;https://fonts.googleapis.com/css?family=Noto+Serif+Bengali&quot; face=&quot;Noto Serif Bengali&quot;&gt;*NEXT&lt;/font&gt;" style="shape=partialRectangle;html=1;whiteSpace=wrap;connectable=0;strokeColor=inherit;overflow=hidden;fillColor=none;top=0;left=0;bottom=0;right=0;pointerEvents=1;" parent="4uYOrzkODTTvTiDh_vcF-8" vertex="1">
          <mxGeometry x="107" width="53" height="40" as="geometry">
            <mxRectangle width="53" height="40" as="alternateBounds" />
          </mxGeometry>
        </mxCell>
        <mxCell id="4uYOrzkODTTvTiDh_vcF-12" value="Passengers List" style="text;html=1;align=center;verticalAlign=middle;resizable=0;points=[];autosize=1;strokeColor=none;fillColor=none;fontSize=22;fontFamily=Noto Serif Bengali;fontSource=https%3A%2F%2Ffonts.googleapis.com%2Fcss%3Ffamily%3DNoto%2BSerif%2BBengali;fontColor=#EA6B66;" parent="1" vertex="1">
          <mxGeometry x="70" y="160" width="180" height="40" as="geometry" />
        </mxCell>
        <mxCell id="4uYOrzkODTTvTiDh_vcF-15" value="" style="shape=table;startSize=0;container=1;collapsible=0;childLayout=tableLayout;fillColor=#ffe6cc;strokeColor=#d79b00;" parent="1" vertex="1">
          <mxGeometry x="480" y="160" width="160" height="40" as="geometry" />
        </mxCell>
        <mxCell id="4uYOrzkODTTvTiDh_vcF-16" value="" style="shape=tableRow;horizontal=0;startSize=0;swimlaneHead=0;swimlaneBody=0;strokeColor=inherit;top=0;left=0;bottom=0;right=0;collapsible=0;dropTarget=0;fillColor=none;points=[[0,0.5],[1,0.5]];portConstraint=eastwest;" parent="4uYOrzkODTTvTiDh_vcF-15" vertex="1">
          <mxGeometry width="160" height="40" as="geometry" />
        </mxCell>
        <mxCell id="4uYOrzkODTTvTiDh_vcF-17" value="&lt;span style=&quot;font-family: &amp;quot;Noto Serif Bengali&amp;quot;;&quot;&gt;NULL&lt;/span&gt;" style="shape=partialRectangle;html=1;whiteSpace=wrap;connectable=0;strokeColor=inherit;overflow=hidden;fillColor=none;top=0;left=0;bottom=0;right=0;pointerEvents=1;" parent="4uYOrzkODTTvTiDh_vcF-16" vertex="1">
          <mxGeometry width="53" height="40" as="geometry">
            <mxRectangle width="53" height="40" as="alternateBounds" />
          </mxGeometry>
        </mxCell>
        <mxCell id="4uYOrzkODTTvTiDh_vcF-18" value="&lt;span style=&quot;font-family: &amp;quot;Noto Serif Bengali&amp;quot;;&quot;&gt;DATA&lt;/span&gt;" style="shape=partialRectangle;html=1;whiteSpace=wrap;connectable=0;strokeColor=inherit;overflow=hidden;fillColor=none;top=0;left=0;bottom=0;right=0;pointerEvents=1;" parent="4uYOrzkODTTvTiDh_vcF-16" vertex="1">
          <mxGeometry x="53" width="54" height="40" as="geometry">
            <mxRectangle width="54" height="40" as="alternateBounds" />
          </mxGeometry>
        </mxCell>
        <mxCell id="4uYOrzkODTTvTiDh_vcF-19" value="&lt;span style=&quot;font-family: &amp;quot;Noto Serif Bengali&amp;quot;;&quot;&gt;*NEXT&lt;/span&gt;" style="shape=partialRectangle;html=1;whiteSpace=wrap;connectable=0;strokeColor=inherit;overflow=hidden;fillColor=none;top=0;left=0;bottom=0;right=0;pointerEvents=1;" parent="4uYOrzkODTTvTiDh_vcF-16" vertex="1">
          <mxGeometry x="107" width="53" height="40" as="geometry">
            <mxRectangle width="53" height="40" as="alternateBounds" />
          </mxGeometry>
        </mxCell>
        <mxCell id="4uYOrzkODTTvTiDh_vcF-20" value="" style="shape=table;startSize=0;container=1;collapsible=0;childLayout=tableLayout;fillColor=#ffe6cc;strokeColor=#d79b00;" parent="1" vertex="1">
          <mxGeometry x="880" y="160" width="160" height="40" as="geometry" />
        </mxCell>
        <mxCell id="4uYOrzkODTTvTiDh_vcF-21" value="" style="shape=tableRow;horizontal=0;startSize=0;swimlaneHead=0;swimlaneBody=0;strokeColor=inherit;top=0;left=0;bottom=0;right=0;collapsible=0;dropTarget=0;fillColor=none;points=[[0,0.5],[1,0.5]];portConstraint=eastwest;" parent="4uYOrzkODTTvTiDh_vcF-20" vertex="1">
          <mxGeometry width="160" height="40" as="geometry" />
        </mxCell>
        <mxCell id="4uYOrzkODTTvTiDh_vcF-22" value="&lt;span style=&quot;font-family: &amp;quot;Noto Serif Bengali&amp;quot;;&quot;&gt;NULL&lt;/span&gt;" style="shape=partialRectangle;html=1;whiteSpace=wrap;connectable=0;strokeColor=inherit;overflow=hidden;fillColor=none;top=0;left=0;bottom=0;right=0;pointerEvents=1;" parent="4uYOrzkODTTvTiDh_vcF-21" vertex="1">
          <mxGeometry width="53" height="40" as="geometry">
            <mxRectangle width="53" height="40" as="alternateBounds" />
          </mxGeometry>
        </mxCell>
        <mxCell id="4uYOrzkODTTvTiDh_vcF-23" value="&lt;span style=&quot;font-family: &amp;quot;Noto Serif Bengali&amp;quot;;&quot;&gt;DATA&lt;/span&gt;" style="shape=partialRectangle;html=1;whiteSpace=wrap;connectable=0;strokeColor=inherit;overflow=hidden;fillColor=none;top=0;left=0;bottom=0;right=0;pointerEvents=1;" parent="4uYOrzkODTTvTiDh_vcF-21" vertex="1">
          <mxGeometry x="53" width="54" height="40" as="geometry">
            <mxRectangle width="54" height="40" as="alternateBounds" />
          </mxGeometry>
        </mxCell>
        <mxCell id="4uYOrzkODTTvTiDh_vcF-24" value="&lt;span style=&quot;font-family: &amp;quot;Noto Serif Bengali&amp;quot;;&quot;&gt;NULL&lt;/span&gt;" style="shape=partialRectangle;html=1;whiteSpace=wrap;connectable=0;strokeColor=inherit;overflow=hidden;fillColor=none;top=0;left=0;bottom=0;right=0;pointerEvents=1;" parent="4uYOrzkODTTvTiDh_vcF-21" vertex="1">
          <mxGeometry x="107" width="53" height="40" as="geometry">
            <mxRectangle width="53" height="40" as="alternateBounds" />
          </mxGeometry>
        </mxCell>
        <mxCell id="4uYOrzkODTTvTiDh_vcF-25" value="" style="shape=table;startSize=0;container=1;collapsible=0;childLayout=tableLayout;fillColor=#ffe6cc;strokeColor=#d79b00;" parent="1" vertex="1">
          <mxGeometry x="680" y="160" width="160" height="40" as="geometry" />
        </mxCell>
        <mxCell id="4uYOrzkODTTvTiDh_vcF-26" value="" style="shape=tableRow;horizontal=0;startSize=0;swimlaneHead=0;swimlaneBody=0;strokeColor=inherit;top=0;left=0;bottom=0;right=0;collapsible=0;dropTarget=0;fillColor=none;points=[[0,0.5],[1,0.5]];portConstraint=eastwest;" parent="4uYOrzkODTTvTiDh_vcF-25" vertex="1">
          <mxGeometry width="160" height="40" as="geometry" />
        </mxCell>
        <mxCell id="4uYOrzkODTTvTiDh_vcF-27" value="&lt;span style=&quot;font-family: &amp;quot;Noto Serif Bengali&amp;quot;;&quot;&gt;NULL&lt;/span&gt;" style="shape=partialRectangle;html=1;whiteSpace=wrap;connectable=0;strokeColor=inherit;overflow=hidden;fillColor=none;top=0;left=0;bottom=0;right=0;pointerEvents=1;" parent="4uYOrzkODTTvTiDh_vcF-26" vertex="1">
          <mxGeometry width="53" height="40" as="geometry">
            <mxRectangle width="53" height="40" as="alternateBounds" />
          </mxGeometry>
        </mxCell>
        <mxCell id="4uYOrzkODTTvTiDh_vcF-28" value="&lt;span style=&quot;font-family: &amp;quot;Noto Serif Bengali&amp;quot;;&quot;&gt;DATA&lt;/span&gt;" style="shape=partialRectangle;html=1;whiteSpace=wrap;connectable=0;strokeColor=inherit;overflow=hidden;fillColor=none;top=0;left=0;bottom=0;right=0;pointerEvents=1;" parent="4uYOrzkODTTvTiDh_vcF-26" vertex="1">
          <mxGeometry x="53" width="54" height="40" as="geometry">
            <mxRectangle width="54" height="40" as="alternateBounds" />
          </mxGeometry>
        </mxCell>
        <mxCell id="4uYOrzkODTTvTiDh_vcF-29" value="&lt;span style=&quot;font-family: &amp;quot;Noto Serif Bengali&amp;quot;;&quot;&gt;*NEXT&lt;/span&gt;" style="shape=partialRectangle;html=1;whiteSpace=wrap;connectable=0;strokeColor=inherit;overflow=hidden;fillColor=none;top=0;left=0;bottom=0;right=0;pointerEvents=1;" parent="4uYOrzkODTTvTiDh_vcF-26" vertex="1">
          <mxGeometry x="107" width="53" height="40" as="geometry">
            <mxRectangle width="53" height="40" as="alternateBounds" />
          </mxGeometry>
        </mxCell>
        <mxCell id="4uYOrzkODTTvTiDh_vcF-30" value="&lt;font style=&quot;font-size: 16px;&quot;&gt;Name&lt;/font&gt;" style="text;html=1;align=left;verticalAlign=middle;resizable=0;points=[];autosize=1;strokeColor=none;fillColor=none;fontSize=16;fontFamily=Noto Serif Bengali;fontSource=https%3A%2F%2Ffonts.googleapis.com%2Fcss%3Ffamily%3DNoto%2BSerif%2BBengali;fontColor=#000000;fontStyle=0" parent="1" vertex="1">
          <mxGeometry x="400" y="60" width="70" height="30" as="geometry" />
        </mxCell>
        <mxCell id="4uYOrzkODTTvTiDh_vcF-31" value="&lt;font style=&quot;font-size: 16px;&quot;&gt;Flight details&lt;/font&gt;" style="text;html=1;align=left;verticalAlign=middle;resizable=0;points=[];autosize=1;strokeColor=none;fillColor=none;fontSize=16;fontFamily=Noto Serif Bengali;fontSource=https%3A%2F%2Ffonts.googleapis.com%2Fcss%3Ffamily%3DNoto%2BSerif%2BBengali;fontColor=#000000;fontStyle=0" parent="1" vertex="1">
          <mxGeometry x="400" y="90" width="120" height="30" as="geometry" />
        </mxCell>
        <mxCell id="4uYOrzkODTTvTiDh_vcF-32" value="&lt;span style=&quot;text-align: center;&quot;&gt;Number of bags&lt;/span&gt;" style="text;html=1;align=left;verticalAlign=middle;resizable=0;points=[];autosize=1;strokeColor=none;fillColor=none;fontSize=16;fontFamily=Noto Serif Bengali;fontSource=https%3A%2F%2Ffonts.googleapis.com%2Fcss%3Ffamily%3DNoto%2BSerif%2BBengali;fontColor=#000000;fontStyle=0" parent="1" vertex="1">
          <mxGeometry x="400" y="120" width="140" height="30" as="geometry" />
        </mxCell>
        <mxCell id="4uYOrzkODTTvTiDh_vcF-34" value="" style="endArrow=classic;html=1;rounded=0;" parent="1" edge="1">
          <mxGeometry width="50" height="50" relative="1" as="geometry">
            <mxPoint x="360" y="160" as="sourcePoint" />
            <mxPoint x="390" y="79" as="targetPoint" />
            <Array as="points">
              <mxPoint x="360" y="79" />
            </Array>
          </mxGeometry>
        </mxCell>
        <mxCell id="4uYOrzkODTTvTiDh_vcF-35" value="" style="endArrow=classic;html=1;rounded=0;" parent="1" edge="1">
          <mxGeometry width="50" height="50" relative="1" as="geometry">
            <mxPoint x="360" y="160" as="sourcePoint" />
            <mxPoint x="390" y="107" as="targetPoint" />
            <Array as="points">
              <mxPoint x="360" y="107" />
            </Array>
          </mxGeometry>
        </mxCell>
        <mxCell id="4uYOrzkODTTvTiDh_vcF-36" value="" style="endArrow=classic;html=1;rounded=0;" parent="1" edge="1">
          <mxGeometry width="50" height="50" relative="1" as="geometry">
            <mxPoint x="360" y="160" as="sourcePoint" />
            <mxPoint x="390" y="134" as="targetPoint" />
            <Array as="points">
              <mxPoint x="360" y="134" />
            </Array>
          </mxGeometry>
        </mxCell>
        <mxCell id="4uYOrzkODTTvTiDh_vcF-38" style="edgeStyle=orthogonalEdgeStyle;rounded=0;orthogonalLoop=1;jettySize=auto;html=1;exitX=1;exitY=0.5;exitDx=0;exitDy=0;" parent="1" source="4uYOrzkODTTvTiDh_vcF-8" target="4uYOrzkODTTvTiDh_vcF-16" edge="1">
          <mxGeometry relative="1" as="geometry" />
        </mxCell>
        <mxCell id="4uYOrzkODTTvTiDh_vcF-39" style="edgeStyle=orthogonalEdgeStyle;rounded=0;orthogonalLoop=1;jettySize=auto;html=1;exitX=1;exitY=0.5;exitDx=0;exitDy=0;entryX=0;entryY=0.5;entryDx=0;entryDy=0;" parent="1" source="4uYOrzkODTTvTiDh_vcF-16" target="4uYOrzkODTTvTiDh_vcF-26" edge="1">
          <mxGeometry relative="1" as="geometry" />
        </mxCell>
        <mxCell id="4uYOrzkODTTvTiDh_vcF-40" style="edgeStyle=orthogonalEdgeStyle;rounded=0;orthogonalLoop=1;jettySize=auto;html=1;exitX=1;exitY=0.5;exitDx=0;exitDy=0;entryX=0;entryY=0.5;entryDx=0;entryDy=0;" parent="1" source="4uYOrzkODTTvTiDh_vcF-26" target="4uYOrzkODTTvTiDh_vcF-21" edge="1">
          <mxGeometry relative="1" as="geometry" />
        </mxCell>
        <mxCell id="4uYOrzkODTTvTiDh_vcF-41" value="" style="shape=table;startSize=0;container=1;collapsible=0;childLayout=tableLayout;fillColor=#d5e8d4;strokeColor=#82b366;" parent="1" vertex="1">
          <mxGeometry x="1555" y="832" width="107" height="40" as="geometry" />
        </mxCell>
        <mxCell id="4uYOrzkODTTvTiDh_vcF-42" value="" style="shape=tableRow;horizontal=0;startSize=0;swimlaneHead=0;swimlaneBody=0;strokeColor=inherit;top=0;left=0;bottom=0;right=0;collapsible=0;dropTarget=0;fillColor=none;points=[[0,0.5],[1,0.5]];portConstraint=eastwest;" parent="4uYOrzkODTTvTiDh_vcF-41" vertex="1">
          <mxGeometry width="107" height="40" as="geometry" />
        </mxCell>
        <mxCell id="4uYOrzkODTTvTiDh_vcF-44" value="&lt;span style=&quot;font-family: &amp;quot;Noto Serif Bengali&amp;quot;;&quot;&gt;DATA&lt;/span&gt;" style="shape=partialRectangle;html=1;whiteSpace=wrap;connectable=0;strokeColor=inherit;overflow=hidden;fillColor=none;top=0;left=0;bottom=0;right=0;pointerEvents=1;" parent="4uYOrzkODTTvTiDh_vcF-42" vertex="1">
          <mxGeometry width="54" height="40" as="geometry">
            <mxRectangle width="54" height="40" as="alternateBounds" />
          </mxGeometry>
        </mxCell>
        <mxCell id="4uYOrzkODTTvTiDh_vcF-45" value="&lt;font data-font-src=&quot;https://fonts.googleapis.com/css?family=Noto+Serif+Bengali&quot; face=&quot;Noto Serif Bengali&quot;&gt;NEXT&lt;/font&gt;" style="shape=partialRectangle;html=1;whiteSpace=wrap;connectable=0;strokeColor=inherit;overflow=hidden;fillColor=none;top=0;left=0;bottom=0;right=0;pointerEvents=1;" parent="4uYOrzkODTTvTiDh_vcF-42" vertex="1">
          <mxGeometry x="54" width="53" height="40" as="geometry">
            <mxRectangle width="53" height="40" as="alternateBounds" />
          </mxGeometry>
        </mxCell>
        <mxCell id="4uYOrzkODTTvTiDh_vcF-46" value="&lt;font style=&quot;font-size: 22px;&quot;&gt;Baggage Cart&lt;/font&gt;" style="text;html=1;align=center;verticalAlign=middle;resizable=0;points=[];autosize=1;strokeColor=none;fillColor=none;fontSize=22;fontFamily=Noto Serif Bengali;fontSource=https%3A%2F%2Ffonts.googleapis.com%2Fcss%3Ffamily%3DNoto%2BSerif%2BBengali;fontColor=#EA6B66;" parent="1" vertex="1">
          <mxGeometry x="1536" y="1123" width="154" height="38" as="geometry" />
        </mxCell>
        <mxCell id="4uYOrzkODTTvTiDh_vcF-47" value="" style="shape=table;startSize=0;container=1;collapsible=0;childLayout=tableLayout;fillColor=#d5e8d4;strokeColor=#82b366;" parent="1" vertex="1">
          <mxGeometry x="1555" y="912" width="107" height="40" as="geometry" />
        </mxCell>
        <mxCell id="4uYOrzkODTTvTiDh_vcF-48" value="" style="shape=tableRow;horizontal=0;startSize=0;swimlaneHead=0;swimlaneBody=0;strokeColor=inherit;top=0;left=0;bottom=0;right=0;collapsible=0;dropTarget=0;fillColor=none;points=[[0,0.5],[1,0.5]];portConstraint=eastwest;" parent="4uYOrzkODTTvTiDh_vcF-47" vertex="1">
          <mxGeometry width="107" height="40" as="geometry" />
        </mxCell>
        <mxCell id="4uYOrzkODTTvTiDh_vcF-50" value="&lt;span style=&quot;font-family: &amp;quot;Noto Serif Bengali&amp;quot;;&quot;&gt;DATA&lt;/span&gt;" style="shape=partialRectangle;html=1;whiteSpace=wrap;connectable=0;strokeColor=inherit;overflow=hidden;fillColor=none;top=0;left=0;bottom=0;right=0;pointerEvents=1;" parent="4uYOrzkODTTvTiDh_vcF-48" vertex="1">
          <mxGeometry width="54" height="40" as="geometry">
            <mxRectangle width="54" height="40" as="alternateBounds" />
          </mxGeometry>
        </mxCell>
        <mxCell id="4uYOrzkODTTvTiDh_vcF-51" value="&lt;span style=&quot;font-family: &amp;quot;Noto Serif Bengali&amp;quot;;&quot;&gt;NEXT&lt;/span&gt;" style="shape=partialRectangle;html=1;whiteSpace=wrap;connectable=0;strokeColor=inherit;overflow=hidden;fillColor=none;top=0;left=0;bottom=0;right=0;pointerEvents=1;" parent="4uYOrzkODTTvTiDh_vcF-48" vertex="1">
          <mxGeometry x="54" width="53" height="40" as="geometry">
            <mxRectangle width="53" height="40" as="alternateBounds" />
          </mxGeometry>
        </mxCell>
        <mxCell id="4uYOrzkODTTvTiDh_vcF-52" value="" style="shape=table;startSize=0;container=1;collapsible=0;childLayout=tableLayout;fillColor=#d5e8d4;strokeColor=#82b366;" parent="1" vertex="1">
          <mxGeometry x="1555" y="1072" width="107" height="40" as="geometry" />
        </mxCell>
        <mxCell id="4uYOrzkODTTvTiDh_vcF-53" value="" style="shape=tableRow;horizontal=0;startSize=0;swimlaneHead=0;swimlaneBody=0;strokeColor=inherit;top=0;left=0;bottom=0;right=0;collapsible=0;dropTarget=0;fillColor=none;points=[[0,0.5],[1,0.5]];portConstraint=eastwest;" parent="4uYOrzkODTTvTiDh_vcF-52" vertex="1">
          <mxGeometry width="107" height="40" as="geometry" />
        </mxCell>
        <mxCell id="4uYOrzkODTTvTiDh_vcF-55" value="&lt;span style=&quot;font-family: &amp;quot;Noto Serif Bengali&amp;quot;;&quot;&gt;DATA&lt;/span&gt;" style="shape=partialRectangle;html=1;whiteSpace=wrap;connectable=0;strokeColor=inherit;overflow=hidden;fillColor=none;top=0;left=0;bottom=0;right=0;pointerEvents=1;" parent="4uYOrzkODTTvTiDh_vcF-53" vertex="1">
          <mxGeometry width="54" height="40" as="geometry">
            <mxRectangle width="54" height="40" as="alternateBounds" />
          </mxGeometry>
        </mxCell>
        <mxCell id="4uYOrzkODTTvTiDh_vcF-56" value="&lt;span style=&quot;font-family: &amp;quot;Noto Serif Bengali&amp;quot;;&quot;&gt;NULL&lt;/span&gt;" style="shape=partialRectangle;html=1;whiteSpace=wrap;connectable=0;strokeColor=inherit;overflow=hidden;fillColor=none;top=0;left=0;bottom=0;right=0;pointerEvents=1;" parent="4uYOrzkODTTvTiDh_vcF-53" vertex="1">
          <mxGeometry x="54" width="53" height="40" as="geometry">
            <mxRectangle width="53" height="40" as="alternateBounds" />
          </mxGeometry>
        </mxCell>
        <mxCell id="4uYOrzkODTTvTiDh_vcF-57" value="" style="shape=table;startSize=0;container=1;collapsible=0;childLayout=tableLayout;fillColor=#d5e8d4;strokeColor=#82b366;" parent="1" vertex="1">
          <mxGeometry x="1555" y="992" width="107" height="40" as="geometry" />
        </mxCell>
        <mxCell id="4uYOrzkODTTvTiDh_vcF-58" value="" style="shape=tableRow;horizontal=0;startSize=0;swimlaneHead=0;swimlaneBody=0;strokeColor=inherit;top=0;left=0;bottom=0;right=0;collapsible=0;dropTarget=0;fillColor=none;points=[[0,0.5],[1,0.5]];portConstraint=eastwest;" parent="4uYOrzkODTTvTiDh_vcF-57" vertex="1">
          <mxGeometry width="107" height="40" as="geometry" />
        </mxCell>
        <mxCell id="4uYOrzkODTTvTiDh_vcF-60" value="&lt;span style=&quot;font-family: &amp;quot;Noto Serif Bengali&amp;quot;;&quot;&gt;DATA&lt;/span&gt;" style="shape=partialRectangle;html=1;whiteSpace=wrap;connectable=0;strokeColor=inherit;overflow=hidden;fillColor=none;top=0;left=0;bottom=0;right=0;pointerEvents=1;" parent="4uYOrzkODTTvTiDh_vcF-58" vertex="1">
          <mxGeometry width="54" height="40" as="geometry">
            <mxRectangle width="54" height="40" as="alternateBounds" />
          </mxGeometry>
        </mxCell>
        <mxCell id="4uYOrzkODTTvTiDh_vcF-61" value="&lt;span style=&quot;font-family: &amp;quot;Noto Serif Bengali&amp;quot;;&quot;&gt;NEXT&lt;/span&gt;" style="shape=partialRectangle;html=1;whiteSpace=wrap;connectable=0;strokeColor=inherit;overflow=hidden;fillColor=none;top=0;left=0;bottom=0;right=0;pointerEvents=1;" parent="4uYOrzkODTTvTiDh_vcF-58" vertex="1">
          <mxGeometry x="54" width="53" height="40" as="geometry">
            <mxRectangle width="53" height="40" as="alternateBounds" />
          </mxGeometry>
        </mxCell>
        <mxCell id="4uYOrzkODTTvTiDh_vcF-73" value="" style="curved=1;endArrow=classic;html=1;rounded=0;strokeWidth=2;fillColor=#f8cecc;strokeColor=#67AB9F;" parent="1" edge="1">
          <mxGeometry width="50" height="50" relative="1" as="geometry">
            <mxPoint x="610" y="150" as="sourcePoint" />
            <mxPoint x="660" y="100" as="targetPoint" />
            <Array as="points">
              <mxPoint x="660" y="150" />
              <mxPoint x="610" y="100" />
            </Array>
          </mxGeometry>
        </mxCell>
        <mxCell id="4uYOrzkODTTvTiDh_vcF-75" value="&lt;font style=&quot;font-size: 20px;&quot;&gt;Check-in-Queue&lt;/font&gt;" style="text;html=1;align=left;verticalAlign=middle;resizable=0;points=[];autosize=1;strokeColor=none;fillColor=none;fontSize=20;fontFamily=Noto Serif Bengali;fontSource=https%3A%2F%2Ffonts.googleapis.com%2Fcss%3Ffamily%3DNoto%2BSerif%2BBengali;fontColor=#67AB9F;" parent="1" vertex="1">
          <mxGeometry x="660" y="81" width="169" height="36" as="geometry" />
        </mxCell>
        <mxCell id="4uYOrzkODTTvTiDh_vcF-76" value="" style="curved=1;endArrow=classic;html=1;rounded=0;strokeColor=#67AB9F;strokeWidth=2;align=center;verticalAlign=middle;fontFamily=Helvetica;fontSize=11;fontColor=default;labelBackgroundColor=default;fillColor=#f8cecc;" parent="1" edge="1">
          <mxGeometry width="50" height="50" relative="1" as="geometry">
            <mxPoint x="360" y="209.99999999999977" as="sourcePoint" />
            <mxPoint x="310" y="259.9999999999998" as="targetPoint" />
            <Array as="points">
              <mxPoint x="310" y="209.99999999999977" />
              <mxPoint x="360" y="259.9999999999998" />
            </Array>
          </mxGeometry>
        </mxCell>
        <mxCell id="4uYOrzkODTTvTiDh_vcF-77" value="&lt;font style=&quot;font-size: 15px;&quot;&gt;FRONT&lt;/font&gt;" style="text;html=1;align=center;verticalAlign=middle;resizable=0;points=[];autosize=1;strokeColor=none;fillColor=none;fontSize=15;fontFamily=Noto Serif Bengali;fontSource=https%3A%2F%2Ffonts.googleapis.com%2Fcss%3Ffamily%3DNoto%2BSerif%2BBengali;fontColor=#67AB9F;" parent="1" vertex="1">
          <mxGeometry x="245" y="246" width="70" height="30" as="geometry" />
        </mxCell>
        <mxCell id="4uYOrzkODTTvTiDh_vcF-78" value="" style="curved=1;endArrow=classic;html=1;rounded=0;strokeColor=#67AB9F;strokeWidth=2;align=center;verticalAlign=middle;fontFamily=Helvetica;fontSize=11;fontColor=default;labelBackgroundColor=default;fillColor=#f8cecc;" parent="1" edge="1">
          <mxGeometry width="50" height="50" relative="1" as="geometry">
            <mxPoint x="985" y="209.99999999999977" as="sourcePoint" />
            <mxPoint x="935" y="259.9999999999998" as="targetPoint" />
            <Array as="points">
              <mxPoint x="935" y="209.99999999999977" />
              <mxPoint x="985" y="259.9999999999998" />
            </Array>
          </mxGeometry>
        </mxCell>
        <mxCell id="4uYOrzkODTTvTiDh_vcF-79" value="&lt;font style=&quot;font-size: 15px;&quot;&gt;REAR&lt;/font&gt;" style="text;html=1;align=center;verticalAlign=middle;resizable=0;points=[];autosize=1;strokeColor=none;fillColor=none;fontSize=15;fontFamily=Noto Serif Bengali;fontSource=https%3A%2F%2Ffonts.googleapis.com%2Fcss%3Ffamily%3DNoto%2BSerif%2BBengali;fontColor=#67AB9F;" parent="1" vertex="1">
          <mxGeometry x="875" y="246" width="60" height="30" as="geometry" />
        </mxCell>
        <mxCell id="4uYOrzkODTTvTiDh_vcF-81" style="edgeStyle=orthogonalEdgeStyle;rounded=0;orthogonalLoop=1;jettySize=auto;html=1;exitX=0.5;exitY=0;exitDx=0;exitDy=0;entryX=0.499;entryY=1;entryDx=0;entryDy=0;entryPerimeter=0;" parent="1" source="4uYOrzkODTTvTiDh_vcF-52" target="4uYOrzkODTTvTiDh_vcF-58" edge="1">
          <mxGeometry relative="1" as="geometry" />
        </mxCell>
        <mxCell id="4uYOrzkODTTvTiDh_vcF-87" style="edgeStyle=orthogonalEdgeStyle;rounded=0;orthogonalLoop=1;jettySize=auto;html=1;exitX=0.5;exitY=0;exitDx=0;exitDy=0;entryX=0.502;entryY=1.075;entryDx=0;entryDy=0;entryPerimeter=0;" parent="1" source="4uYOrzkODTTvTiDh_vcF-47" target="4uYOrzkODTTvTiDh_vcF-42" edge="1">
          <mxGeometry relative="1" as="geometry" />
        </mxCell>
        <mxCell id="4uYOrzkODTTvTiDh_vcF-88" style="edgeStyle=orthogonalEdgeStyle;rounded=0;orthogonalLoop=1;jettySize=auto;html=1;exitX=0.5;exitY=0;exitDx=0;exitDy=0;entryX=0.502;entryY=1.018;entryDx=0;entryDy=0;entryPerimeter=0;" parent="1" source="4uYOrzkODTTvTiDh_vcF-57" target="4uYOrzkODTTvTiDh_vcF-48" edge="1">
          <mxGeometry relative="1" as="geometry" />
        </mxCell>
        <mxCell id="4uYOrzkODTTvTiDh_vcF-90" value="" style="curved=1;endArrow=classic;html=1;rounded=0;strokeColor=#67AB9F;strokeWidth=2;align=center;verticalAlign=middle;fontFamily=Helvetica;fontSize=11;fontColor=default;labelBackgroundColor=default;fillColor=#f8cecc;" parent="1" edge="1">
          <mxGeometry width="50" height="50" relative="1" as="geometry">
            <mxPoint x="1688" y="1000" as="sourcePoint" />
            <mxPoint x="1738" y="950" as="targetPoint" />
            <Array as="points">
              <mxPoint x="1738" y="1000" />
              <mxPoint x="1688" y="950" />
            </Array>
          </mxGeometry>
        </mxCell>
        <mxCell id="4uYOrzkODTTvTiDh_vcF-92" value="&lt;font style=&quot;font-size: 20px;&quot;&gt;Baggage Stack&lt;/font&gt;" style="text;html=1;align=left;verticalAlign=middle;resizable=0;points=[];autosize=1;strokeColor=none;fillColor=none;fontSize=20;fontFamily=Noto Serif Bengali;fontSource=https%3A%2F%2Ffonts.googleapis.com%2Fcss%3Ffamily%3DNoto%2BSerif%2BBengali;fontColor=#67AB9F;" parent="1" vertex="1">
          <mxGeometry x="1744" y="932" width="152" height="36" as="geometry" />
        </mxCell>
        <mxCell id="6l25WZC5jpUMUkjfm_VL-1" value="" style="rounded=1;whiteSpace=wrap;html=1;fillColor=none;strokeColor=#EA6B66;strokeWidth=2;" parent="1" vertex="1">
          <mxGeometry x="81" y="518" width="942" height="60" as="geometry" />
        </mxCell>
        <mxCell id="6l25WZC5jpUMUkjfm_VL-2" value="" style="shape=table;startSize=0;container=1;collapsible=0;childLayout=tableLayout;fillColor=#f8cecc;strokeColor=#b85450;" parent="1" vertex="1">
          <mxGeometry x="280" y="528" width="107" height="40" as="geometry" />
        </mxCell>
        <mxCell id="6l25WZC5jpUMUkjfm_VL-3" value="" style="shape=tableRow;horizontal=0;startSize=0;swimlaneHead=0;swimlaneBody=0;strokeColor=inherit;top=0;left=0;bottom=0;right=0;collapsible=0;dropTarget=0;fillColor=none;points=[[0,0.5],[1,0.5]];portConstraint=eastwest;" parent="6l25WZC5jpUMUkjfm_VL-2" vertex="1">
          <mxGeometry width="107" height="40" as="geometry" />
        </mxCell>
        <mxCell id="6l25WZC5jpUMUkjfm_VL-5" value="&lt;font face=&quot;Noto Serif Bengali&quot;&gt;DATA&lt;/font&gt;" style="shape=partialRectangle;html=1;whiteSpace=wrap;connectable=0;strokeColor=inherit;overflow=hidden;fillColor=none;top=0;left=0;bottom=0;right=0;pointerEvents=1;" parent="6l25WZC5jpUMUkjfm_VL-3" vertex="1">
          <mxGeometry width="54" height="40" as="geometry">
            <mxRectangle width="54" height="40" as="alternateBounds" />
          </mxGeometry>
        </mxCell>
        <mxCell id="6l25WZC5jpUMUkjfm_VL-6" value="&lt;font data-font-src=&quot;https://fonts.googleapis.com/css?family=Noto+Serif+Bengali&quot; face=&quot;Noto Serif Bengali&quot;&gt;*NEXT&lt;/font&gt;" style="shape=partialRectangle;html=1;whiteSpace=wrap;connectable=0;strokeColor=inherit;overflow=hidden;fillColor=none;top=0;left=0;bottom=0;right=0;pointerEvents=1;" parent="6l25WZC5jpUMUkjfm_VL-3" vertex="1">
          <mxGeometry x="54" width="53" height="40" as="geometry">
            <mxRectangle width="53" height="40" as="alternateBounds" />
          </mxGeometry>
        </mxCell>
        <mxCell id="6l25WZC5jpUMUkjfm_VL-7" value="Baggage List" style="text;html=1;align=center;verticalAlign=middle;resizable=0;points=[];autosize=1;strokeColor=none;fillColor=none;fontSize=22;fontFamily=Noto Serif Bengali;fontSource=https%3A%2F%2Ffonts.googleapis.com%2Fcss%3Ffamily%3DNoto%2BSerif%2BBengali;fontColor=#EA6B66;" parent="1" vertex="1">
          <mxGeometry x="86" y="529" width="149" height="38" as="geometry" />
        </mxCell>
        <mxCell id="6l25WZC5jpUMUkjfm_VL-8" value="" style="shape=table;startSize=0;container=1;collapsible=0;childLayout=tableLayout;fillColor=#f8cecc;strokeColor=#b85450;" parent="1" vertex="1">
          <mxGeometry x="480" y="528" width="107" height="40" as="geometry" />
        </mxCell>
        <mxCell id="6l25WZC5jpUMUkjfm_VL-9" value="" style="shape=tableRow;horizontal=0;startSize=0;swimlaneHead=0;swimlaneBody=0;strokeColor=inherit;top=0;left=0;bottom=0;right=0;collapsible=0;dropTarget=0;fillColor=none;points=[[0,0.5],[1,0.5]];portConstraint=eastwest;" parent="6l25WZC5jpUMUkjfm_VL-8" vertex="1">
          <mxGeometry width="107" height="40" as="geometry" />
        </mxCell>
        <mxCell id="6l25WZC5jpUMUkjfm_VL-11" value="&lt;span style=&quot;font-family: &amp;quot;Noto Serif Bengali&amp;quot;;&quot;&gt;DATA&lt;/span&gt;" style="shape=partialRectangle;html=1;whiteSpace=wrap;connectable=0;strokeColor=inherit;overflow=hidden;fillColor=none;top=0;left=0;bottom=0;right=0;pointerEvents=1;" parent="6l25WZC5jpUMUkjfm_VL-9" vertex="1">
          <mxGeometry width="54" height="40" as="geometry">
            <mxRectangle width="54" height="40" as="alternateBounds" />
          </mxGeometry>
        </mxCell>
        <mxCell id="6l25WZC5jpUMUkjfm_VL-12" value="&lt;span style=&quot;font-family: &amp;quot;Noto Serif Bengali&amp;quot;;&quot;&gt;*NEXT&lt;/span&gt;" style="shape=partialRectangle;html=1;whiteSpace=wrap;connectable=0;strokeColor=inherit;overflow=hidden;fillColor=none;top=0;left=0;bottom=0;right=0;pointerEvents=1;" parent="6l25WZC5jpUMUkjfm_VL-9" vertex="1">
          <mxGeometry x="54" width="53" height="40" as="geometry">
            <mxRectangle width="53" height="40" as="alternateBounds" />
          </mxGeometry>
        </mxCell>
        <mxCell id="6l25WZC5jpUMUkjfm_VL-13" value="" style="shape=table;startSize=0;container=1;collapsible=0;childLayout=tableLayout;fillColor=#f8cecc;strokeColor=#b85450;" parent="1" vertex="1">
          <mxGeometry x="880" y="528" width="107" height="40" as="geometry" />
        </mxCell>
        <mxCell id="6l25WZC5jpUMUkjfm_VL-14" value="" style="shape=tableRow;horizontal=0;startSize=0;swimlaneHead=0;swimlaneBody=0;strokeColor=inherit;top=0;left=0;bottom=0;right=0;collapsible=0;dropTarget=0;fillColor=none;points=[[0,0.5],[1,0.5]];portConstraint=eastwest;" parent="6l25WZC5jpUMUkjfm_VL-13" vertex="1">
          <mxGeometry width="107" height="40" as="geometry" />
        </mxCell>
        <mxCell id="6l25WZC5jpUMUkjfm_VL-16" value="&lt;span style=&quot;font-family: &amp;quot;Noto Serif Bengali&amp;quot;;&quot;&gt;DATA&lt;/span&gt;" style="shape=partialRectangle;html=1;whiteSpace=wrap;connectable=0;strokeColor=inherit;overflow=hidden;fillColor=none;top=0;left=0;bottom=0;right=0;pointerEvents=1;" parent="6l25WZC5jpUMUkjfm_VL-14" vertex="1">
          <mxGeometry width="54" height="40" as="geometry">
            <mxRectangle width="54" height="40" as="alternateBounds" />
          </mxGeometry>
        </mxCell>
        <mxCell id="6l25WZC5jpUMUkjfm_VL-17" value="&lt;span style=&quot;font-family: &amp;quot;Noto Serif Bengali&amp;quot;;&quot;&gt;*NEXT&lt;/span&gt;" style="shape=partialRectangle;html=1;whiteSpace=wrap;connectable=0;strokeColor=inherit;overflow=hidden;fillColor=none;top=0;left=0;bottom=0;right=0;pointerEvents=1;" parent="6l25WZC5jpUMUkjfm_VL-14" vertex="1">
          <mxGeometry x="54" width="53" height="40" as="geometry">
            <mxRectangle width="53" height="40" as="alternateBounds" />
          </mxGeometry>
        </mxCell>
        <mxCell id="6l25WZC5jpUMUkjfm_VL-18" value="" style="shape=table;startSize=0;container=1;collapsible=0;childLayout=tableLayout;fillColor=#f8cecc;strokeColor=#b85450;" parent="1" vertex="1">
          <mxGeometry x="680" y="528" width="107" height="40" as="geometry" />
        </mxCell>
        <mxCell id="6l25WZC5jpUMUkjfm_VL-19" value="" style="shape=tableRow;horizontal=0;startSize=0;swimlaneHead=0;swimlaneBody=0;strokeColor=inherit;top=0;left=0;bottom=0;right=0;collapsible=0;dropTarget=0;fillColor=none;points=[[0,0.5],[1,0.5]];portConstraint=eastwest;" parent="6l25WZC5jpUMUkjfm_VL-18" vertex="1">
          <mxGeometry width="107" height="40" as="geometry" />
        </mxCell>
        <mxCell id="6l25WZC5jpUMUkjfm_VL-21" value="&lt;span style=&quot;font-family: &amp;quot;Noto Serif Bengali&amp;quot;;&quot;&gt;DATA&lt;/span&gt;" style="shape=partialRectangle;html=1;whiteSpace=wrap;connectable=0;strokeColor=inherit;overflow=hidden;fillColor=none;top=0;left=0;bottom=0;right=0;pointerEvents=1;" parent="6l25WZC5jpUMUkjfm_VL-19" vertex="1">
          <mxGeometry width="54" height="40" as="geometry">
            <mxRectangle width="54" height="40" as="alternateBounds" />
          </mxGeometry>
        </mxCell>
        <mxCell id="6l25WZC5jpUMUkjfm_VL-22" value="&lt;span style=&quot;font-family: &amp;quot;Noto Serif Bengali&amp;quot;;&quot;&gt;*NEXT&lt;/span&gt;" style="shape=partialRectangle;html=1;whiteSpace=wrap;connectable=0;strokeColor=inherit;overflow=hidden;fillColor=none;top=0;left=0;bottom=0;right=0;pointerEvents=1;" parent="6l25WZC5jpUMUkjfm_VL-19" vertex="1">
          <mxGeometry x="54" width="53" height="40" as="geometry">
            <mxRectangle width="53" height="40" as="alternateBounds" />
          </mxGeometry>
        </mxCell>
        <mxCell id="6l25WZC5jpUMUkjfm_VL-23" value="&lt;font style=&quot;font-size: 16px;&quot;&gt;Size&lt;/font&gt;" style="text;html=1;align=left;verticalAlign=middle;resizable=0;points=[];autosize=1;strokeColor=none;fillColor=none;fontSize=16;fontFamily=Noto Serif Bengali;fontSource=https%3A%2F%2Ffonts.googleapis.com%2Fcss%3Ffamily%3DNoto%2BSerif%2BBengali;fontColor=#000000;fontStyle=0" parent="1" vertex="1">
          <mxGeometry x="400" y="432" width="49" height="31" as="geometry" />
        </mxCell>
        <mxCell id="6l25WZC5jpUMUkjfm_VL-24" value="&lt;font style=&quot;font-size: 16px;&quot;&gt;Weight&lt;/font&gt;" style="text;html=1;align=left;verticalAlign=middle;resizable=0;points=[];autosize=1;strokeColor=none;fillColor=none;fontSize=16;fontFamily=Noto Serif Bengali;fontSource=https%3A%2F%2Ffonts.googleapis.com%2Fcss%3Ffamily%3DNoto%2BSerif%2BBengali;fontColor=#000000;fontStyle=0" parent="1" vertex="1">
          <mxGeometry x="400" y="458" width="72" height="31" as="geometry" />
        </mxCell>
        <mxCell id="6l25WZC5jpUMUkjfm_VL-25" value="&lt;span style=&quot;text-align: center;&quot;&gt;Owner&lt;/span&gt;" style="text;html=1;align=left;verticalAlign=middle;resizable=0;points=[];autosize=1;strokeColor=none;fillColor=none;fontSize=16;fontFamily=Noto Serif Bengali;fontSource=https%3A%2F%2Ffonts.googleapis.com%2Fcss%3Ffamily%3DNoto%2BSerif%2BBengali;fontColor=#000000;fontStyle=0" parent="1" vertex="1">
          <mxGeometry x="400" y="488" width="70" height="31" as="geometry" />
        </mxCell>
        <mxCell id="6l25WZC5jpUMUkjfm_VL-26" value="" style="endArrow=classic;html=1;rounded=0;" parent="1" edge="1">
          <mxGeometry width="50" height="50" relative="1" as="geometry">
            <mxPoint x="360" y="528" as="sourcePoint" />
            <mxPoint x="390" y="447" as="targetPoint" />
            <Array as="points">
              <mxPoint x="360" y="447" />
            </Array>
          </mxGeometry>
        </mxCell>
        <mxCell id="6l25WZC5jpUMUkjfm_VL-27" value="" style="endArrow=classic;html=1;rounded=0;" parent="1" edge="1">
          <mxGeometry width="50" height="50" relative="1" as="geometry">
            <mxPoint x="360" y="528" as="sourcePoint" />
            <mxPoint x="390" y="475" as="targetPoint" />
            <Array as="points">
              <mxPoint x="360" y="475" />
            </Array>
          </mxGeometry>
        </mxCell>
        <mxCell id="6l25WZC5jpUMUkjfm_VL-28" value="" style="endArrow=classic;html=1;rounded=0;" parent="1" edge="1">
          <mxGeometry width="50" height="50" relative="1" as="geometry">
            <mxPoint x="360" y="528" as="sourcePoint" />
            <mxPoint x="390" y="502" as="targetPoint" />
            <Array as="points">
              <mxPoint x="360" y="502" />
            </Array>
          </mxGeometry>
        </mxCell>
        <mxCell id="6l25WZC5jpUMUkjfm_VL-29" style="edgeStyle=orthogonalEdgeStyle;rounded=0;orthogonalLoop=1;jettySize=auto;html=1;exitX=1;exitY=0.5;exitDx=0;exitDy=0;" parent="1" source="6l25WZC5jpUMUkjfm_VL-3" target="6l25WZC5jpUMUkjfm_VL-9" edge="1">
          <mxGeometry relative="1" as="geometry" />
        </mxCell>
        <mxCell id="6l25WZC5jpUMUkjfm_VL-30" style="edgeStyle=orthogonalEdgeStyle;rounded=0;orthogonalLoop=1;jettySize=auto;html=1;exitX=1;exitY=0.5;exitDx=0;exitDy=0;entryX=0;entryY=0.5;entryDx=0;entryDy=0;" parent="1" source="6l25WZC5jpUMUkjfm_VL-9" target="6l25WZC5jpUMUkjfm_VL-19" edge="1">
          <mxGeometry relative="1" as="geometry" />
        </mxCell>
        <mxCell id="6l25WZC5jpUMUkjfm_VL-31" style="edgeStyle=orthogonalEdgeStyle;rounded=0;orthogonalLoop=1;jettySize=auto;html=1;exitX=1;exitY=0.5;exitDx=0;exitDy=0;entryX=0;entryY=0.5;entryDx=0;entryDy=0;" parent="1" source="6l25WZC5jpUMUkjfm_VL-19" target="6l25WZC5jpUMUkjfm_VL-14" edge="1">
          <mxGeometry relative="1" as="geometry" />
        </mxCell>
        <mxCell id="6l25WZC5jpUMUkjfm_VL-32" value="" style="curved=1;endArrow=classic;html=1;rounded=0;strokeWidth=2;fillColor=#f8cecc;strokeColor=#EA6B66;align=center;verticalAlign=middle;fontFamily=Helvetica;fontSize=11;fontColor=default;labelBackgroundColor=default;" parent="1" edge="1">
          <mxGeometry width="50" height="50" relative="1" as="geometry">
            <mxPoint x="610" y="518" as="sourcePoint" />
            <mxPoint x="660" y="468" as="targetPoint" />
            <Array as="points">
              <mxPoint x="660" y="518" />
              <mxPoint x="610" y="468" />
            </Array>
          </mxGeometry>
        </mxCell>
        <mxCell id="6l25WZC5jpUMUkjfm_VL-33" value="&lt;font style=&quot;font-size: 20px;&quot;&gt;Baggage Queue&lt;/font&gt;" style="text;html=1;align=left;verticalAlign=middle;resizable=0;points=[];autosize=1;strokeColor=none;fillColor=none;fontSize=15;fontFamily=Noto Serif Bengali;fontSource=https%3A%2F%2Ffonts.googleapis.com%2Fcss%3Ffamily%3DNoto%2BSerif%2BBengali;fontColor=#EA6B66;" parent="1" vertex="1">
          <mxGeometry x="660" y="449" width="163" height="36" as="geometry" />
        </mxCell>
        <mxCell id="6l25WZC5jpUMUkjfm_VL-34" value="" style="curved=1;endArrow=classic;html=1;rounded=0;strokeColor=#EA6B66;strokeWidth=2;align=center;verticalAlign=middle;fontFamily=Helvetica;fontSize=11;fontColor=default;labelBackgroundColor=default;fillColor=#f8cecc;" parent="1" edge="1">
          <mxGeometry width="50" height="50" relative="1" as="geometry">
            <mxPoint x="360" y="577.9999999999998" as="sourcePoint" />
            <mxPoint x="310" y="627.9999999999998" as="targetPoint" />
            <Array as="points">
              <mxPoint x="310" y="577.9999999999998" />
              <mxPoint x="360" y="627.9999999999998" />
            </Array>
          </mxGeometry>
        </mxCell>
        <mxCell id="6l25WZC5jpUMUkjfm_VL-35" value="&lt;font style=&quot;font-size: 15px;&quot;&gt;FRONT&lt;/font&gt;" style="text;html=1;align=center;verticalAlign=middle;resizable=0;points=[];autosize=1;strokeColor=none;fillColor=none;fontSize=15;fontFamily=Noto Serif Bengali;fontSource=https%3A%2F%2Ffonts.googleapis.com%2Fcss%3Ffamily%3DNoto%2BSerif%2BBengali;fontColor=#EA6B66;" parent="1" vertex="1">
          <mxGeometry x="245" y="614" width="70" height="30" as="geometry" />
        </mxCell>
        <mxCell id="6l25WZC5jpUMUkjfm_VL-36" value="" style="curved=1;endArrow=classic;html=1;rounded=0;strokeColor=#EA6B66;strokeWidth=2;align=center;verticalAlign=middle;fontFamily=Helvetica;fontSize=11;fontColor=default;labelBackgroundColor=default;fillColor=#f8cecc;" parent="1" edge="1">
          <mxGeometry width="50" height="50" relative="1" as="geometry">
            <mxPoint x="985" y="577.9999999999998" as="sourcePoint" />
            <mxPoint x="935" y="627.9999999999998" as="targetPoint" />
            <Array as="points">
              <mxPoint x="935" y="577.9999999999998" />
              <mxPoint x="985" y="627.9999999999998" />
            </Array>
          </mxGeometry>
        </mxCell>
        <mxCell id="6l25WZC5jpUMUkjfm_VL-37" value="&lt;font style=&quot;font-size: 15px;&quot;&gt;REAR&lt;/font&gt;" style="text;html=1;align=center;verticalAlign=middle;resizable=0;points=[];autosize=1;strokeColor=none;fillColor=none;fontSize=15;fontFamily=Noto Serif Bengali;fontSource=https%3A%2F%2Ffonts.googleapis.com%2Fcss%3Ffamily%3DNoto%2BSerif%2BBengali;fontColor=#EA6B66;" parent="1" vertex="1">
          <mxGeometry x="875" y="614" width="60" height="30" as="geometry" />
        </mxCell>
        <mxCell id="bVqiyBiTSUjuFusId0XB-1" value="" style="shape=table;startSize=0;container=1;collapsible=0;childLayout=tableLayout;fillColor=#ffe6cc;strokeColor=#d79b00;" parent="1" vertex="1">
          <mxGeometry x="151" y="342" width="160" height="40" as="geometry" />
        </mxCell>
        <mxCell id="bVqiyBiTSUjuFusId0XB-2" value="" style="shape=tableRow;horizontal=0;startSize=0;swimlaneHead=0;swimlaneBody=0;strokeColor=inherit;top=0;left=0;bottom=0;right=0;collapsible=0;dropTarget=0;fillColor=none;points=[[0,0.5],[1,0.5]];portConstraint=eastwest;" parent="bVqiyBiTSUjuFusId0XB-1" vertex="1">
          <mxGeometry width="160" height="40" as="geometry" />
        </mxCell>
        <mxCell id="bVqiyBiTSUjuFusId0XB-3" value="&lt;font face=&quot;Noto Serif Bengali&quot;&gt;*Luggage&lt;/font&gt;" style="shape=partialRectangle;html=1;whiteSpace=wrap;connectable=0;strokeColor=inherit;overflow=hidden;fillColor=none;top=0;left=0;bottom=0;right=0;pointerEvents=1;" parent="bVqiyBiTSUjuFusId0XB-2" vertex="1">
          <mxGeometry width="53" height="40" as="geometry">
            <mxRectangle width="53" height="40" as="alternateBounds" />
          </mxGeometry>
        </mxCell>
        <mxCell id="bVqiyBiTSUjuFusId0XB-4" value="&lt;font face=&quot;Noto Serif Bengali&quot;&gt;DATA&lt;/font&gt;" style="shape=partialRectangle;html=1;whiteSpace=wrap;connectable=0;strokeColor=inherit;overflow=hidden;fillColor=none;top=0;left=0;bottom=0;right=0;pointerEvents=1;" parent="bVqiyBiTSUjuFusId0XB-2" vertex="1">
          <mxGeometry x="53" width="54" height="40" as="geometry">
            <mxRectangle width="54" height="40" as="alternateBounds" />
          </mxGeometry>
        </mxCell>
        <mxCell id="bVqiyBiTSUjuFusId0XB-5" value="&lt;font data-font-src=&quot;https://fonts.googleapis.com/css?family=Noto+Serif+Bengali&quot; face=&quot;Noto Serif Bengali&quot;&gt;*NEXT&lt;/font&gt;" style="shape=partialRectangle;html=1;whiteSpace=wrap;connectable=0;strokeColor=inherit;overflow=hidden;fillColor=none;top=0;left=0;bottom=0;right=0;pointerEvents=1;" parent="bVqiyBiTSUjuFusId0XB-2" vertex="1">
          <mxGeometry x="107" width="53" height="40" as="geometry">
            <mxRectangle width="53" height="40" as="alternateBounds" />
          </mxGeometry>
        </mxCell>
        <mxCell id="bVqiyBiTSUjuFusId0XB-6" value="" style="shape=table;startSize=0;container=1;collapsible=0;childLayout=tableLayout;fillColor=#f8cecc;strokeColor=#b85450;" parent="1" vertex="1">
          <mxGeometry x="351" y="345" width="107" height="40" as="geometry" />
        </mxCell>
        <mxCell id="bVqiyBiTSUjuFusId0XB-7" value="" style="shape=tableRow;horizontal=0;startSize=0;swimlaneHead=0;swimlaneBody=0;strokeColor=inherit;top=0;left=0;bottom=0;right=0;collapsible=0;dropTarget=0;fillColor=none;points=[[0,0.5],[1,0.5]];portConstraint=eastwest;" parent="bVqiyBiTSUjuFusId0XB-6" vertex="1">
          <mxGeometry width="107" height="40" as="geometry" />
        </mxCell>
        <mxCell id="bVqiyBiTSUjuFusId0XB-8" value="&lt;font face=&quot;Noto Serif Bengali&quot;&gt;DATA&lt;/font&gt;" style="shape=partialRectangle;html=1;whiteSpace=wrap;connectable=0;strokeColor=inherit;overflow=hidden;fillColor=none;top=0;left=0;bottom=0;right=0;pointerEvents=1;" parent="bVqiyBiTSUjuFusId0XB-7" vertex="1">
          <mxGeometry width="54" height="40" as="geometry">
            <mxRectangle width="54" height="40" as="alternateBounds" />
          </mxGeometry>
        </mxCell>
        <mxCell id="bVqiyBiTSUjuFusId0XB-9" value="&lt;font data-font-src=&quot;https://fonts.googleapis.com/css?family=Noto+Serif+Bengali&quot; face=&quot;Noto Serif Bengali&quot;&gt;NULL&lt;/font&gt;" style="shape=partialRectangle;html=1;whiteSpace=wrap;connectable=0;strokeColor=inherit;overflow=hidden;fillColor=none;top=0;left=0;bottom=0;right=0;pointerEvents=1;" parent="bVqiyBiTSUjuFusId0XB-7" vertex="1">
          <mxGeometry x="54" width="53" height="40" as="geometry">
            <mxRectangle width="53" height="40" as="alternateBounds" />
          </mxGeometry>
        </mxCell>
        <mxCell id="bVqiyBiTSUjuFusId0XB-11" style="edgeStyle=orthogonalEdgeStyle;rounded=0;orthogonalLoop=1;jettySize=auto;html=1;exitX=0;exitY=0.5;exitDx=0;exitDy=0;entryX=0.175;entryY=1;entryDx=0;entryDy=0;entryPerimeter=0;" parent="1" source="bVqiyBiTSUjuFusId0XB-7" target="bVqiyBiTSUjuFusId0XB-2" edge="1">
          <mxGeometry relative="1" as="geometry" />
        </mxCell>
        <mxCell id="bVqiyBiTSUjuFusId0XB-12" value="" style="curved=1;endArrow=classic;html=1;rounded=0;strokeWidth=1;fillColor=#f8cecc;strokeColor=#EA6B66;align=center;verticalAlign=middle;fontFamily=Helvetica;fontSize=11;fontColor=default;labelBackgroundColor=default;entryX=-0.001;entryY=0.565;entryDx=0;entryDy=0;entryPerimeter=0;" parent="1" target="bVqiyBiTSUjuFusId0XB-13" edge="1">
          <mxGeometry width="50" height="50" relative="1" as="geometry">
            <mxPoint x="449" y="345" as="sourcePoint" />
            <mxPoint x="499" y="295" as="targetPoint" />
            <Array as="points">
              <mxPoint x="499" y="345" />
              <mxPoint x="449" y="295" />
            </Array>
          </mxGeometry>
        </mxCell>
        <mxCell id="bVqiyBiTSUjuFusId0XB-13" value="&lt;font style=&quot;font-size: 16px;&quot;&gt;New Luggage Node&lt;/font&gt;" style="text;html=1;align=left;verticalAlign=middle;resizable=0;points=[];autosize=1;strokeColor=none;fillColor=none;fontSize=15;fontFamily=Noto Serif Bengali;fontSource=https%3A%2F%2Ffonts.googleapis.com%2Fcss%3Ffamily%3DNoto%2BSerif%2BBengali;fontColor=#EA6B66;" parent="1" vertex="1">
          <mxGeometry x="506" y="279" width="164" height="31" as="geometry" />
        </mxCell>
        <mxCell id="bVqiyBiTSUjuFusId0XB-14" style="edgeStyle=orthogonalEdgeStyle;rounded=0;orthogonalLoop=1;jettySize=auto;html=1;exitX=1;exitY=0.5;exitDx=0;exitDy=0;entryX=1;entryY=0.5;entryDx=0;entryDy=0;" parent="1" source="bVqiyBiTSUjuFusId0XB-7" target="6l25WZC5jpUMUkjfm_VL-14" edge="1">
          <mxGeometry relative="1" as="geometry" />
        </mxCell>
        <mxCell id="bVqiyBiTSUjuFusId0XB-15" value="&lt;p style=&quot;line-height: 93%;&quot;&gt;&lt;font data-font-src=&quot;https://fonts.googleapis.com/css?family=Noto+Serif+Bengali&quot; face=&quot;Noto Serif Bengali&quot; style=&quot;font-size: 9px;&quot;&gt;This node is DeQueued from the passenger queue.&lt;/font&gt;&lt;/p&gt;" style="shape=callout;whiteSpace=wrap;html=1;perimeter=calloutPerimeter;fillColor=#E1D5E7;strokeColor=#9673a6;sketch=1;curveFitting=1;jiggle=2;rounded=1;fillStyle=solid;" parent="1" vertex="1">
          <mxGeometry x="96" y="282" width="138" height="60" as="geometry" />
        </mxCell>
        <mxCell id="bVqiyBiTSUjuFusId0XB-16" value="" style="shape=table;startSize=0;container=1;collapsible=0;childLayout=tableLayout;fillColor=#f8cecc;strokeColor=#b85450;" parent="1" vertex="1">
          <mxGeometry x="1039" y="528" width="107" height="40" as="geometry" />
        </mxCell>
        <mxCell id="bVqiyBiTSUjuFusId0XB-17" value="" style="shape=tableRow;horizontal=0;startSize=0;swimlaneHead=0;swimlaneBody=0;strokeColor=inherit;top=0;left=0;bottom=0;right=0;collapsible=0;dropTarget=0;fillColor=none;points=[[0,0.5],[1,0.5]];portConstraint=eastwest;" parent="bVqiyBiTSUjuFusId0XB-16" vertex="1">
          <mxGeometry width="107" height="40" as="geometry" />
        </mxCell>
        <mxCell id="bVqiyBiTSUjuFusId0XB-18" value="&lt;span style=&quot;font-family: &amp;quot;Noto Serif Bengali&amp;quot;;&quot;&gt;DATA&lt;/span&gt;" style="shape=partialRectangle;html=1;whiteSpace=wrap;connectable=0;strokeColor=inherit;overflow=hidden;fillColor=none;top=0;left=0;bottom=0;right=0;pointerEvents=1;" parent="bVqiyBiTSUjuFusId0XB-17" vertex="1">
          <mxGeometry width="54" height="40" as="geometry">
            <mxRectangle width="54" height="40" as="alternateBounds" />
          </mxGeometry>
        </mxCell>
        <mxCell id="bVqiyBiTSUjuFusId0XB-19" value="&lt;span style=&quot;font-family: &amp;quot;Noto Serif Bengali&amp;quot;;&quot;&gt;NULL&lt;/span&gt;" style="shape=partialRectangle;html=1;whiteSpace=wrap;connectable=0;strokeColor=inherit;overflow=hidden;fillColor=none;top=0;left=0;bottom=0;right=0;pointerEvents=1;" parent="bVqiyBiTSUjuFusId0XB-17" vertex="1">
          <mxGeometry x="54" width="53" height="40" as="geometry">
            <mxRectangle width="53" height="40" as="alternateBounds" />
          </mxGeometry>
        </mxCell>
        <mxCell id="bVqiyBiTSUjuFusId0XB-20" style="edgeStyle=orthogonalEdgeStyle;rounded=0;orthogonalLoop=1;jettySize=auto;html=1;exitX=1;exitY=0.5;exitDx=0;exitDy=0;" parent="1" source="6l25WZC5jpUMUkjfm_VL-14" target="bVqiyBiTSUjuFusId0XB-17" edge="1">
          <mxGeometry relative="1" as="geometry" />
        </mxCell>
        <mxCell id="KUDmpAIXVxcFD3onEcnI-1" value="" style="shape=table;startSize=0;container=1;collapsible=0;childLayout=tableLayout;fillColor=#d5e8d4;strokeColor=#82b366;" vertex="1" parent="1">
          <mxGeometry x="1256" y="1103" width="107" height="40" as="geometry" />
        </mxCell>
        <mxCell id="KUDmpAIXVxcFD3onEcnI-2" value="" style="shape=tableRow;horizontal=0;startSize=0;swimlaneHead=0;swimlaneBody=0;strokeColor=inherit;top=0;left=0;bottom=0;right=0;collapsible=0;dropTarget=0;fillColor=none;points=[[0,0.5],[1,0.5]];portConstraint=eastwest;" vertex="1" parent="KUDmpAIXVxcFD3onEcnI-1">
          <mxGeometry width="107" height="40" as="geometry" />
        </mxCell>
        <mxCell id="KUDmpAIXVxcFD3onEcnI-3" value="&lt;span style=&quot;font-family: &amp;quot;Noto Serif Bengali&amp;quot;;&quot;&gt;DATA&lt;/span&gt;" style="shape=partialRectangle;html=1;whiteSpace=wrap;connectable=0;strokeColor=inherit;overflow=hidden;fillColor=none;top=0;left=0;bottom=0;right=0;pointerEvents=1;" vertex="1" parent="KUDmpAIXVxcFD3onEcnI-2">
          <mxGeometry width="54" height="40" as="geometry">
            <mxRectangle width="54" height="40" as="alternateBounds" />
          </mxGeometry>
        </mxCell>
        <mxCell id="KUDmpAIXVxcFD3onEcnI-4" value="&lt;font data-font-src=&quot;https://fonts.googleapis.com/css?family=Noto+Serif+Bengali&quot; face=&quot;Noto Serif Bengali&quot;&gt;NEXT&lt;/font&gt;" style="shape=partialRectangle;html=1;whiteSpace=wrap;connectable=0;strokeColor=inherit;overflow=hidden;fillColor=none;top=0;left=0;bottom=0;right=0;pointerEvents=1;" vertex="1" parent="KUDmpAIXVxcFD3onEcnI-2">
          <mxGeometry x="54" width="53" height="40" as="geometry">
            <mxRectangle width="53" height="40" as="alternateBounds" />
          </mxGeometry>
        </mxCell>
        <mxCell id="KUDmpAIXVxcFD3onEcnI-6" value="&lt;font style=&quot;font-size: 20px;&quot;&gt;Luggage pointer&lt;/font&gt;" style="text;html=1;align=right;verticalAlign=middle;resizable=0;points=[];autosize=1;strokeColor=none;fillColor=none;fontSize=20;fontFamily=Noto Serif Bengali;fontSource=https%3A%2F%2Ffonts.googleapis.com%2Fcss%3Ffamily%3DNoto%2BSerif%2BBengali;fontColor=#67AB9F;" vertex="1" parent="1">
          <mxGeometry x="1097" y="1039" width="173" height="36" as="geometry" />
        </mxCell>
        <mxCell id="KUDmpAIXVxcFD3onEcnI-7" style="edgeStyle=orthogonalEdgeStyle;rounded=0;orthogonalLoop=1;jettySize=auto;html=1;exitX=0;exitY=0.5;exitDx=0;exitDy=0;entryX=0.522;entryY=0.944;entryDx=0;entryDy=0;entryPerimeter=0;" edge="1" parent="1" source="KUDmpAIXVxcFD3onEcnI-2" target="KUDmpAIXVxcFD3onEcnI-6">
          <mxGeometry relative="1" as="geometry" />
        </mxCell>
        <mxCell id="KUDmpAIXVxcFD3onEcnI-8" value="&lt;font style=&quot;font-size: 20px;&quot;&gt;Next pointer&lt;/font&gt;" style="text;html=1;align=right;verticalAlign=middle;resizable=0;points=[];autosize=1;strokeColor=none;fillColor=none;fontSize=20;fontFamily=Noto Serif Bengali;fontSource=https%3A%2F%2Ffonts.googleapis.com%2Fcss%3Ffamily%3DNoto%2BSerif%2BBengali;fontColor=#67AB9F;" vertex="1" parent="1">
          <mxGeometry x="1327" y="1039" width="138" height="36" as="geometry" />
        </mxCell>
        <mxCell id="KUDmpAIXVxcFD3onEcnI-9" style="edgeStyle=orthogonalEdgeStyle;rounded=0;orthogonalLoop=1;jettySize=auto;html=1;exitX=1;exitY=0.5;exitDx=0;exitDy=0;entryX=0.761;entryY=1.008;entryDx=0;entryDy=0;entryPerimeter=0;" edge="1" parent="1" source="KUDmpAIXVxcFD3onEcnI-2" target="KUDmpAIXVxcFD3onEcnI-8">
          <mxGeometry relative="1" as="geometry" />
        </mxCell>
      </root>
    </mxGraphModel>
  </diagram>
  <diagram id="qgXYMIQ_CfL6qzDEXiIS" name="FlowChart">
    <mxGraphModel dx="2049" dy="1263" grid="0" gridSize="10" guides="1" tooltips="1" connect="1" arrows="1" fold="1" page="1" pageScale="1" pageWidth="1920" pageHeight="1200" math="0" shadow="0">
      <root>
        <mxCell id="0" />
        <mxCell id="1" parent="0" />
        <mxCell id="5nfi8O7U2I3vxgpA9w5o-12" value="" style="rounded=1;whiteSpace=wrap;html=1;shadow=0;strokeColor=#d6b656;strokeWidth=2;align=center;verticalAlign=middle;fontFamily=Helvetica;fontSize=12;fontColor=default;fillColor=none;arcSize=3;" parent="1" vertex="1">
          <mxGeometry x="777" y="214" width="366" height="690" as="geometry" />
        </mxCell>
        <mxCell id="GRmhbfAur3I9OHO_-iD3-17" value="" style="edgeStyle=orthogonalEdgeStyle;rounded=0;orthogonalLoop=1;jettySize=auto;html=1;shadow=0;strokeColor=#d6b656;strokeWidth=2;align=center;verticalAlign=middle;fontFamily=Helvetica;fontSize=11;fontColor=default;labelBackgroundColor=default;endArrow=classic;fillColor=#fff2cc;" parent="1" source="GRmhbfAur3I9OHO_-iD3-14" target="GRmhbfAur3I9OHO_-iD3-16" edge="1">
          <mxGeometry relative="1" as="geometry" />
        </mxCell>
        <mxCell id="5nfi8O7U2I3vxgpA9w5o-3" value="" style="edgeStyle=orthogonalEdgeStyle;rounded=0;orthogonalLoop=1;jettySize=auto;html=1;fillColor=#fff2cc;strokeColor=#d6b656;shadow=0;strokeWidth=2;" parent="1" source="5nfi8O7U2I3vxgpA9w5o-1" target="5nfi8O7U2I3vxgpA9w5o-2" edge="1">
          <mxGeometry relative="1" as="geometry" />
        </mxCell>
        <mxCell id="5nfi8O7U2I3vxgpA9w5o-1" value="&lt;font style=&quot;font-size: 20px;&quot; data-font-src=&quot;https://fonts.googleapis.com/css?family=Noto+Serif+Bengali&quot; face=&quot;Noto Serif Bengali&quot;&gt;START&lt;/font&gt;" style="shape=parallelogram;perimeter=parallelogramPerimeter;whiteSpace=wrap;html=1;fixedSize=1;fillColor=#d5e8d4;strokeColor=#82b366;shadow=0;rounded=1;strokeWidth=2;" parent="1" vertex="1">
          <mxGeometry x="900" y="30" width="120" height="60" as="geometry" />
        </mxCell>
        <mxCell id="5nfi8O7U2I3vxgpA9w5o-5" value="" style="edgeStyle=orthogonalEdgeStyle;rounded=0;orthogonalLoop=1;jettySize=auto;html=1;shadow=0;strokeColor=#d6b656;strokeWidth=2;align=center;verticalAlign=middle;fontFamily=Helvetica;fontSize=11;fontColor=default;labelBackgroundColor=default;endArrow=classic;fillColor=#fff2cc;" parent="1" source="5nfi8O7U2I3vxgpA9w5o-2" target="5nfi8O7U2I3vxgpA9w5o-4" edge="1">
          <mxGeometry relative="1" as="geometry" />
        </mxCell>
        <mxCell id="5nfi8O7U2I3vxgpA9w5o-11" style="edgeStyle=orthogonalEdgeStyle;rounded=0;orthogonalLoop=1;jettySize=auto;html=1;exitX=1;exitY=0.5;exitDx=0;exitDy=0;" parent="1" source="5nfi8O7U2I3vxgpA9w5o-2" target="5nfi8O7U2I3vxgpA9w5o-7" edge="1">
          <mxGeometry relative="1" as="geometry" />
        </mxCell>
        <mxCell id="5nfi8O7U2I3vxgpA9w5o-2" value="&lt;span style=&quot;font-family: &amp;quot;Noto Serif Bengali&amp;quot;; font-size: 20px;&quot;&gt;Passenger &lt;b&gt;Check-in&lt;/b&gt;&lt;/span&gt;" style="whiteSpace=wrap;html=1;fillColor=#fff2cc;strokeColor=#d6b656;shadow=0;rounded=1;strokeWidth=2;" parent="1" vertex="1">
          <mxGeometry x="819" y="127" width="280" height="60" as="geometry" />
        </mxCell>
        <mxCell id="GRmhbfAur3I9OHO_-iD3-2" value="" style="edgeStyle=orthogonalEdgeStyle;rounded=0;orthogonalLoop=1;jettySize=auto;html=1;shadow=0;strokeColor=#d6b656;strokeWidth=2;align=center;verticalAlign=middle;fontFamily=Helvetica;fontSize=11;fontColor=default;labelBackgroundColor=default;endArrow=classic;fillColor=#fff2cc;" parent="1" source="5nfi8O7U2I3vxgpA9w5o-4" target="GRmhbfAur3I9OHO_-iD3-1" edge="1">
          <mxGeometry relative="1" as="geometry" />
        </mxCell>
        <mxCell id="5nfi8O7U2I3vxgpA9w5o-4" value="&lt;font face=&quot;Noto Serif Bengali&quot;&gt;&lt;span style=&quot;font-size: 20px;&quot;&gt;&lt;b&gt;EnQueue&lt;/b&gt; the luggage onto the &lt;b&gt;Baggage Queue&lt;/b&gt;.&lt;/span&gt;&lt;/font&gt;" style="whiteSpace=wrap;html=1;fillColor=#fff2cc;strokeColor=#d6b656;shadow=0;rounded=1;strokeWidth=2;" parent="1" vertex="1">
          <mxGeometry x="804" y="236" width="312" height="80" as="geometry" />
        </mxCell>
        <mxCell id="5nfi8O7U2I3vxgpA9w5o-7" value="completePassengerCheckIn()" style="text;html=1;align=center;verticalAlign=middle;resizable=0;points=[];autosize=1;fontFamily=Noto Serif Bengali;fontSource=https%3A%2F%2Ffonts.googleapis.com%2Fcss%3Ffamily%3DNoto%2BSerif%2BBengali;fontSize=19;fontStyle=2" parent="1" vertex="1">
          <mxGeometry x="1160" y="139.5" width="280" height="35" as="geometry" />
        </mxCell>
        <mxCell id="5nfi8O7U2I3vxgpA9w5o-8" value="beginCheckInProcess()" style="text;html=1;align=center;verticalAlign=middle;resizable=0;points=[];autosize=1;fontFamily=Noto Serif Bengali;fontSource=https%3A%2F%2Ffonts.googleapis.com%2Fcss%3Ffamily%3DNoto%2BSerif%2BBengali;fontSize=19;fontStyle=2" parent="1" vertex="1">
          <mxGeometry x="1099" y="42.5" width="225" height="35" as="geometry" />
        </mxCell>
        <mxCell id="5nfi8O7U2I3vxgpA9w5o-10" style="edgeStyle=orthogonalEdgeStyle;rounded=0;orthogonalLoop=1;jettySize=auto;html=1;exitX=1;exitY=0.5;exitDx=0;exitDy=0;entryX=-0.02;entryY=0.496;entryDx=0;entryDy=0;entryPerimeter=0;" parent="1" source="5nfi8O7U2I3vxgpA9w5o-1" target="5nfi8O7U2I3vxgpA9w5o-8" edge="1">
          <mxGeometry relative="1" as="geometry" />
        </mxCell>
        <mxCell id="5nfi8O7U2I3vxgpA9w5o-13" value="" style="curved=1;endArrow=classic;html=1;rounded=0;fillColor=#f8cecc;strokeColor=#b85450;strokeWidth=2;" parent="1" target="5nfi8O7U2I3vxgpA9w5o-14" edge="1">
          <mxGeometry width="50" height="50" relative="1" as="geometry">
            <mxPoint x="777" y="405" as="sourcePoint" />
            <mxPoint x="727" y="355" as="targetPoint" />
            <Array as="points">
              <mxPoint x="727" y="405" />
              <mxPoint x="777" y="355" />
            </Array>
          </mxGeometry>
        </mxCell>
        <mxCell id="5nfi8O7U2I3vxgpA9w5o-14" value="&lt;b&gt;After a passenger checked-in&lt;/b&gt;" style="text;html=1;align=center;verticalAlign=middle;resizable=0;points=[];autosize=1;fontFamily=Noto Serif Bengali;fontSource=https%3A%2F%2Ffonts.googleapis.com%2Fcss%3Ffamily%3DNoto%2BSerif%2BBengali;fontSize=19;" parent="1" vertex="1">
          <mxGeometry x="434" y="337" width="283" height="35" as="geometry" />
        </mxCell>
        <mxCell id="GRmhbfAur3I9OHO_-iD3-4" value="" style="edgeStyle=orthogonalEdgeStyle;rounded=0;orthogonalLoop=1;jettySize=auto;html=1;shadow=0;strokeColor=#d6b656;strokeWidth=2;align=center;verticalAlign=middle;fontFamily=Helvetica;fontSize=11;fontColor=default;labelBackgroundColor=default;endArrow=classic;fillColor=#fff2cc;" parent="1" source="GRmhbfAur3I9OHO_-iD3-1" target="GRmhbfAur3I9OHO_-iD3-3" edge="1">
          <mxGeometry relative="1" as="geometry" />
        </mxCell>
        <mxCell id="GRmhbfAur3I9OHO_-iD3-11" value="&lt;font style=&quot;font-size: 12px;&quot; face=&quot;Noto Serif Bengali&quot; data-font-src=&quot;https://fonts.googleapis.com/css?family=Noto+Serif+Bengali&quot; color=&quot;#00cc66&quot;&gt;YES&lt;/font&gt;" style="edgeLabel;html=1;align=center;verticalAlign=middle;resizable=0;points=[];fontSize=12;" parent="GRmhbfAur3I9OHO_-iD3-4" vertex="1" connectable="0">
          <mxGeometry x="-0.1816" y="-3" relative="1" as="geometry">
            <mxPoint x="3" y="-3" as="offset" />
          </mxGeometry>
        </mxCell>
        <mxCell id="GRmhbfAur3I9OHO_-iD3-20" value="&lt;font style=&quot;font-size: 12px;&quot; face=&quot;Noto Serif Bengali&quot; data-font-src=&quot;https://fonts.googleapis.com/css?family=Noto+Serif+Bengali&quot; color=&quot;#00cc66&quot;&gt;YES&lt;/font&gt;" style="edgeLabel;html=1;align=center;verticalAlign=middle;resizable=0;points=[];fontSize=12;" parent="GRmhbfAur3I9OHO_-iD3-4" vertex="1" connectable="0">
          <mxGeometry x="-0.1816" y="-3" relative="1" as="geometry">
            <mxPoint x="3" y="313" as="offset" />
          </mxGeometry>
        </mxCell>
        <mxCell id="GRmhbfAur3I9OHO_-iD3-6" value="" style="edgeStyle=orthogonalEdgeStyle;rounded=0;orthogonalLoop=1;jettySize=auto;html=1;shadow=0;strokeColor=#d6b656;strokeWidth=2;align=center;verticalAlign=middle;fontFamily=Helvetica;fontSize=11;fontColor=default;labelBackgroundColor=default;endArrow=classic;fillColor=#fff2cc;" parent="1" source="GRmhbfAur3I9OHO_-iD3-1" target="GRmhbfAur3I9OHO_-iD3-5" edge="1">
          <mxGeometry relative="1" as="geometry" />
        </mxCell>
        <mxCell id="GRmhbfAur3I9OHO_-iD3-7" value="&lt;font style=&quot;font-size: 12px;&quot; face=&quot;Noto Serif Bengali&quot; data-font-src=&quot;https://fonts.googleapis.com/css?family=Noto+Serif+Bengali&quot; color=&quot;#ff0000&quot;&gt;NO&lt;/font&gt;" style="edgeLabel;html=1;align=center;verticalAlign=middle;resizable=0;points=[];fontSize=12;" parent="GRmhbfAur3I9OHO_-iD3-6" vertex="1" connectable="0">
          <mxGeometry x="-0.2006" y="-1" relative="1" as="geometry">
            <mxPoint x="9" y="-1" as="offset" />
          </mxGeometry>
        </mxCell>
        <mxCell id="GRmhbfAur3I9OHO_-iD3-1" value="&lt;font face=&quot;Noto Serif Bengali&quot;&gt;&lt;span style=&quot;font-size: 20px;&quot;&gt;If all &lt;b&gt;Checked-in&lt;/b&gt;&lt;/span&gt;&lt;/font&gt;" style="rhombus;whiteSpace=wrap;html=1;fillColor=#fff2cc;strokeColor=#d6b656;shadow=0;rounded=1;strokeWidth=2;" parent="1" vertex="1">
          <mxGeometry x="817" y="344" width="286" height="100" as="geometry" />
        </mxCell>
        <mxCell id="GRmhbfAur3I9OHO_-iD3-15" value="" style="edgeStyle=orthogonalEdgeStyle;rounded=0;orthogonalLoop=1;jettySize=auto;html=1;shadow=0;strokeColor=#d6b656;strokeWidth=2;align=center;verticalAlign=middle;fontFamily=Helvetica;fontSize=11;fontColor=default;labelBackgroundColor=default;endArrow=classic;fillColor=#fff2cc;" parent="1" source="GRmhbfAur3I9OHO_-iD3-3" target="GRmhbfAur3I9OHO_-iD3-14" edge="1">
          <mxGeometry relative="1" as="geometry" />
        </mxCell>
        <mxCell id="GRmhbfAur3I9OHO_-iD3-3" value="&lt;font face=&quot;Noto Serif Bengali&quot;&gt;&lt;span style=&quot;font-size: 20px;&quot;&gt;&lt;b&gt;DeQueue&lt;/b&gt;&amp;nbsp;the Luggage and &lt;b&gt;push&lt;/b&gt; onto the &lt;b&gt;Baggage Cart&lt;/b&gt;&lt;/span&gt;&lt;/font&gt;" style="whiteSpace=wrap;html=1;fillColor=#d5e8d4;strokeColor=#82b366;shadow=0;rounded=1;strokeWidth=2;" parent="1" vertex="1">
          <mxGeometry x="816" y="503" width="288" height="82" as="geometry" />
        </mxCell>
        <mxCell id="GRmhbfAur3I9OHO_-iD3-13" value="" style="edgeStyle=orthogonalEdgeStyle;rounded=0;orthogonalLoop=1;jettySize=auto;html=1;shadow=0;strokeColor=#d6b656;strokeWidth=2;align=center;verticalAlign=middle;fontFamily=Helvetica;fontSize=11;fontColor=default;labelBackgroundColor=default;endArrow=classic;fillColor=#fff2cc;" parent="1" source="GRmhbfAur3I9OHO_-iD3-5" target="GRmhbfAur3I9OHO_-iD3-12" edge="1">
          <mxGeometry relative="1" as="geometry" />
        </mxCell>
        <mxCell id="GRmhbfAur3I9OHO_-iD3-5" value="&lt;span style=&quot;font-family: &amp;quot;Noto Serif Bengali&amp;quot;; font-size: 20px;&quot;&gt;&lt;b&gt;Wait&lt;/b&gt; for all Checked-in&lt;/span&gt;" style="whiteSpace=wrap;html=1;fillColor=#f8cecc;strokeColor=#b85450;shadow=0;rounded=1;strokeWidth=2;" parent="1" vertex="1">
          <mxGeometry x="1181" y="364" width="248" height="60" as="geometry" />
        </mxCell>
        <mxCell id="GRmhbfAur3I9OHO_-iD3-12" value="&lt;font face=&quot;Noto Serif Bengali&quot;&gt;&lt;span style=&quot;font-size: 20px;&quot;&gt;Continue the main Function&lt;/span&gt;&lt;/font&gt;" style="whiteSpace=wrap;html=1;fillColor=#f8cecc;strokeColor=#b85450;shadow=0;rounded=1;strokeWidth=2;" parent="1" vertex="1">
          <mxGeometry x="1186" y="465" width="238" height="60" as="geometry" />
        </mxCell>
        <mxCell id="GRmhbfAur3I9OHO_-iD3-22" value="" style="edgeStyle=orthogonalEdgeStyle;rounded=0;orthogonalLoop=1;jettySize=auto;html=1;shadow=0;strokeColor=#d6b656;strokeWidth=2;align=center;verticalAlign=middle;fontFamily=Helvetica;fontSize=11;fontColor=default;labelBackgroundColor=default;endArrow=classic;fillColor=#fff2cc;" parent="1" source="GRmhbfAur3I9OHO_-iD3-14" target="GRmhbfAur3I9OHO_-iD3-21" edge="1">
          <mxGeometry relative="1" as="geometry" />
        </mxCell>
        <mxCell id="GRmhbfAur3I9OHO_-iD3-24" value="&lt;font color=&quot;#ff0000&quot; face=&quot;Noto Serif Bengali&quot; style=&quot;font-size: 12px;&quot;&gt;NO&lt;/font&gt;" style="edgeLabel;html=1;align=center;verticalAlign=middle;resizable=0;points=[];" parent="GRmhbfAur3I9OHO_-iD3-22" vertex="1" connectable="0">
          <mxGeometry x="-0.0861" relative="1" as="geometry">
            <mxPoint as="offset" />
          </mxGeometry>
        </mxCell>
        <mxCell id="GRmhbfAur3I9OHO_-iD3-14" value="&lt;span style=&quot;font-family: &amp;quot;Noto Serif Bengali&amp;quot;; font-size: 20px;&quot;&gt;If &lt;b&gt;BaggageQueue&lt;/b&gt;&lt;/span&gt;&lt;div&gt;&lt;span style=&quot;font-family: &amp;quot;Noto Serif Bengali&amp;quot;; font-size: 20px;&quot;&gt;isEmpty&lt;/span&gt;&lt;/div&gt;" style="rhombus;whiteSpace=wrap;html=1;fillColor=#fff2cc;strokeColor=#d6b656;shadow=0;rounded=1;strokeWidth=2;align=center;verticalAlign=middle;fontFamily=Helvetica;fontSize=12;fontColor=default;" parent="1" vertex="1">
          <mxGeometry x="817" y="618" width="286" height="140" as="geometry" />
        </mxCell>
        <mxCell id="GRmhbfAur3I9OHO_-iD3-26" value="" style="edgeStyle=orthogonalEdgeStyle;rounded=0;orthogonalLoop=1;jettySize=auto;html=1;shadow=0;strokeColor=#d6b656;strokeWidth=2;align=center;verticalAlign=middle;fontFamily=Helvetica;fontSize=11;fontColor=default;labelBackgroundColor=default;endArrow=classic;fillColor=#fff2cc;" parent="1" source="GRmhbfAur3I9OHO_-iD3-16" target="GRmhbfAur3I9OHO_-iD3-25" edge="1">
          <mxGeometry relative="1" as="geometry" />
        </mxCell>
        <mxCell id="GRmhbfAur3I9OHO_-iD3-16" value="&lt;span style=&quot;font-family: &amp;quot;Noto Serif Bengali&amp;quot;; font-size: 20px;&quot;&gt;Start &lt;b&gt;popping&lt;/b&gt;&amp;nbsp;&lt;/span&gt;&lt;span style=&quot;font-family: &amp;quot;Noto Serif Bengali&amp;quot;; font-size: 20px;&quot;&gt;Baggage Cart&lt;/span&gt;" style="whiteSpace=wrap;html=1;fillColor=#d5e8d4;strokeColor=#82b366;shadow=0;rounded=1;strokeWidth=2;" parent="1" vertex="1">
          <mxGeometry x="818" y="812" width="284" height="60" as="geometry" />
        </mxCell>
        <mxCell id="GRmhbfAur3I9OHO_-iD3-21" value="" style="whiteSpace=wrap;html=1;fillColor=#f8cecc;strokeColor=#b85450;shadow=0;rounded=1;strokeWidth=2;" parent="1" vertex="1">
          <mxGeometry x="1192" y="658" width="239" height="60" as="geometry" />
        </mxCell>
        <mxCell id="RVupMFEsO6PGEV8TZP3a-2" value="" style="edgeStyle=orthogonalEdgeStyle;rounded=0;orthogonalLoop=1;jettySize=auto;html=1;" edge="1" parent="1" source="GRmhbfAur3I9OHO_-iD3-25" target="RVupMFEsO6PGEV8TZP3a-1">
          <mxGeometry relative="1" as="geometry" />
        </mxCell>
        <mxCell id="GRmhbfAur3I9OHO_-iD3-25" value="&lt;font face=&quot;Noto Serif Bengali&quot;&gt;&lt;span style=&quot;font-size: 20px;&quot;&gt;&lt;b&gt;Load&lt;/b&gt; onto the airplane.&lt;/span&gt;&lt;/font&gt;" style="whiteSpace=wrap;html=1;fillColor=#fff2cc;strokeColor=#d6b656;shadow=0;rounded=1;strokeWidth=2;" parent="1" vertex="1">
          <mxGeometry x="799" y="952" width="322" height="60" as="geometry" />
        </mxCell>
        <mxCell id="bQEU1PvgOzL8pPqmQ_jk-1" value="" style="curved=1;endArrow=classic;html=1;rounded=0;exitX=-0.001;exitY=0.554;exitDx=0;exitDy=0;exitPerimeter=0;strokeColor=#b85450;strokeWidth=2;align=center;verticalAlign=middle;fontFamily=Helvetica;fontSize=11;fontColor=default;labelBackgroundColor=default;fillColor=#f8cecc;entryX=0.997;entryY=0.543;entryDx=0;entryDy=0;entryPerimeter=0;" parent="1" source="GRmhbfAur3I9OHO_-iD3-3" target="bQEU1PvgOzL8pPqmQ_jk-2" edge="1">
          <mxGeometry width="50" height="50" relative="1" as="geometry">
            <mxPoint x="799" y="550" as="sourcePoint" />
            <mxPoint x="728" y="506" as="targetPoint" />
            <Array as="points">
              <mxPoint x="728" y="556" />
              <mxPoint x="778" y="506" />
            </Array>
          </mxGeometry>
        </mxCell>
        <mxCell id="bQEU1PvgOzL8pPqmQ_jk-2" value="&lt;b&gt;At this point create Baggage Stack&lt;/b&gt;" style="text;html=1;align=center;verticalAlign=middle;resizable=0;points=[];autosize=1;fontFamily=Noto Serif Bengali;fontSource=https%3A%2F%2Ffonts.googleapis.com%2Fcss%3Ffamily%3DNoto%2BSerif%2BBengali;fontSize=19;" parent="1" vertex="1">
          <mxGeometry x="389" y="480" width="328" height="35" as="geometry" />
        </mxCell>
        <mxCell id="RVupMFEsO6PGEV8TZP3a-1" value="&lt;font face=&quot;Noto Serif Bengali&quot;&gt;&lt;span style=&quot;font-size: 20px;&quot;&gt;&lt;b&gt;&lt;i&gt;free()&lt;/i&gt; &lt;/b&gt;all the nodes&lt;/span&gt;&lt;/font&gt;" style="whiteSpace=wrap;html=1;fillColor=#f8cecc;strokeColor=#b85450;shadow=0;rounded=1;strokeWidth=2;" vertex="1" parent="1">
          <mxGeometry x="846" y="1092" width="228" height="60" as="geometry" />
        </mxCell>
      </root>
    </mxGraphModel>
  </diagram>
</mxfile>
